# AST/ASF file generated using VICON BodyLanguage
# -----------------------------------------------
:version 1.10
:name VICON
:units
  mass 1.0
  length 0.45
  angle deg
:documentation
   .ast/.asf automatically generated from VICON data using
   VICON BodyBuilder and BodyLanguage model FoxedUp or BRILLIANT.MOD
:root
   order TX TY TZ RX RY RZ
   axis XYZ
   position 0 0 0  
   orientation 0 0 0 
:bonedata
  begin
     id 1 
     name lhipjoint
     direction 0.645893 -0.654526 0.392961 
     length 2.38111 
     axis 0 0 0  XYZ
  end
  begin
     id 2 
     name lfemur
     direction 0.34202 -0.939693 0  
     length 6.6822  
     axis 0 0 20  XYZ
    dof rx ry rz
    limits (-160.0 20.0)
           (-70.0 70.0)
           (-60.0 70.0)
  end
  begin
     id 3 
     name ltibia
     direction 0.34202 -0.939693 0   
     length 6.93904   
     axis 0 0 20   XYZ
    dof rx
    limits (-10.0 170.0)
  end
  begin
     id 4 
     name lfoot
     direction 0.0694967 -0.190941 0.979138   
     length 2.13616   
     axis -90 7.62852e-016 20   XYZ
    dof rx rz
    limits (-45.0 90.0)
           (-70.0 20.0)
  end
  begin
     id 5 
     name ltoes
     direction 1.535e-011 -4.2202e-011 1   
     length 1.07536   
     axis -90 7.62852e-016 20   XYZ
    dof rx
    limits (-90.0 20.0)
  end
  begin
     id 6 
     name rhipjoint
     direction -0.700219 -0.612087 0.367481   
     length 2.54621  
     axis 0 0 0  XYZ 
  end
  begin
     id 7 
     name rfemur
     direction -0.34202 -0.939693 0   
     length 6.55353   
     axis 0 0 -20   XYZ
    dof rx ry rz
    limits (-160.0 20.0)
           (-70.0 70.0)
           (-70.0 60.0)
  end
  begin
     id 8 
     name rtibia
     direction -0.34202 -0.939693 0   
     length 6.8736   
     axis 0 0 -20   XYZ
    dof rx
    limits (-10.0 170.0)
 end
 begin
     id 9 
     name rfoot
     direction -0.0679995 -0.186827 0.980037   
     length 2.1218  
     axis -90 -7.62852e-016 -20   XYZ
    dof rx rz
    limits (-45.0 90.0)
           (-20.0 70.0)
  end
  begin
     id 10 
     name rtoes
     direction -1.53589e-011 -4.21772e-011 1   
     length 1.06864   
     axis -90 -7.62852e-016 -20   XYZ
    dof rx
    limits (-90.0 20.0)
  end
  begin
     id 11 
     name lowerback
     direction -0.0416607 0.996347 -0.0745409   
     length 2.12205   
     axis 0 0 0   XYZ
    dof rx ry rz
    limits (-20.0 45.0)
           (-30.0 30.0)
           (-30.0 30.0)
  end
  begin
     id 12 
     name upperback
     direction -0.000153993 0.999276 -0.0380568   
     length 2.12759   
     axis 0 0 0   XYZ
    dof rx ry rz
    limits (-20.0 45.0)
           (-30.0 30.0)
           (-30.0 30.0)
  end
  begin
     id 13 
     name thorax
     direction 0.0187671 0.999821 -0.00241421   
     length 2.13704   
     axis 0 0 0   XYZ
    dof rx ry rz
    limits (-20.0 45.0)
           (-30.0 30.0)
           (-30.0 30.0)
  end
  begin
     id 14 
     name lowerneck
     direction 0.0268157 0.964865 0.261374   
     length 1.65253   
     axis 0 0 0   XYZ
    dof rx ry rz
    limits (-20.0 45.0)
           (-30.0 30.0)
           (-30.0 30.0)
  end
  begin
     id 15 
     name upperneck
     direction 0.00263774 0.939908 -0.341418   
     length 1.72375   
     axis 0 0 0   XYZ
    dof rx ry rz
    limits (-20.0 45.0)
           (-30.0 30.0)
           (-30.0 30.0)
  end
  begin
     id 16
     name head
     direction -0.00526001 0.989001 -0.147818  
     length 1.74878  
     axis 0 0 0   XYZ
    dof rx ry rz
    limits (-20.0 45.0)
           (-30.0 30.0)
           (-30.0 30.0)
  end
  begin
     id 17 
     name lclavicle
     direction 0.881214 0.461162 -0.103884  
     length 3.25108  
     axis 0 0 0   XYZ
    dof ry rz
    limits (-20.0 10.0)
           (0.0 20.0)
  end
  begin
     id 18 
     name lhumerus
     direction 1 -4.4899e-011 3.38092e-027   
     length 4.87408   
     axis 180 -30 -90   XYZ
    dof rx ry rz
    limits (-60.0 90.0)
           (-90.0 90.0)
           (-90.0 90.0)
  end
  begin
     id 19
     name lradius
     direction 1 -4.48931e-011 9.96288e-027   
     length 2.76729   
     axis 180 -30 -90   XYZ
    dof rx
    limits (-10.0 170.0)
  end
  begin
     id 20
     name lwrist
     direction 1 -4.4896e-011 1.50617e-026   
     length 1.38364   
     axis -9.31234e-015 90 90   XYZ
    dof ry
    limits (-180.0 0.0)
 end
  begin
     id 21 
     name lhand
     direction 1 -4.49038e-011 3.01286e-026   
     length 0.98922   
     axis -1.92217e-014 90 90   XYZ
    dof rx rz
    limits (-90.0 90.0)
           (-45.0 45.0)
  end
  begin
     id 22 
     name lfingers
     direction 1 -4.49051e-011 6.02588e-026   
     length 0.797535   
     axis -3.84436e-014 90 90   XYZ
    dof rx
    limits (0.0 90.0)
  end
  begin
     id 23
     name lthumb
     direction 0.707107 -6.34901e-011 0.707107   
     length 1.14511   
     axis -90 45 2.19363e-014   XYZ
    dof rx rz
    limits (-45.0 45.0)
           (-45.0 45.0)
  end
  begin
     id 24 
     name rclavicle
     direction -0.893894 0.441652 -0.0767889   
     length 3.29361  
     axis 0 0 0   XYZ 
    dof ry rz
    limits (-10.0 20.0)
           (-20.0 0.0)
  end
  begin
     id 25 
     name rhumerus
     direction -1 -4.48945e-011 8.0491e-028  
     length 4.71404   
     axis 180 30 90   XYZ
    dof rx ry rz
    limits (-90.0 60.0)
           (-90.0 90.0)
           (-90.0 90.0)
  end
  begin
     id 26 
     name rradius
     direction -1 -4.48986e-011 9.27795e-027   
     length 2.83468   
     axis 180 30 90   XYZ
    dof rx
    limits (-10.0 170.0)
  end
  begin
     id 27 
     name rwrist
     direction -1 -4.49029e-011 1.5064e-026   
     length 1.41734   
     axis -9.31234e-015 -90 -90   XYZ
    dof ry
    limits (-180.0 0.0)
  end
  begin
     id 28
     name rhand
     direction -1 -4.48857e-011 3.01165e-026   
     length 0.868195   
     axis -1.92217e-014 -90 -90   XYZ
    dof rx rz
    limits (-90.0 90.0)
           (-45.0 45.0)
  end
  begin
     id 29
     name rfingers
     direction -1 -4.49048e-011 6.02585e-026   
     length 0.699961   
     axis -3.84436e-014 -90 -90   XYZ
    dof rx
    limits (0.0 90.0)
  end
  begin
     id 30
     name rthumb
     direction -0.707107 -6.34854e-011 0.707107   
     length 1.00501   
     axis -90 -45 -2.19363e-014   XYZ
    dof rx rz
    limits (-45.0 45.0)
           (-45.0 45.0)
  end
:hierarchy
  begin
    root lhipjoint rhipjoint lowerback
    lhipjoint lfemur
    lfemur ltibia
    ltibia lfoot
    lfoot ltoes
    rhipjoint rfemur
    rfemur rtibia
    rtibia rfoot
    rfoot rtoes
    lowerback upperback
    upperback thorax
    thorax lowerneck lclavicle rclavicle
    lowerneck upperneck
    upperneck head
    lclavicle lhumerus
    lhumerus lradius
    lradius lwrist
    lwrist lhand lthumb
    lhand lfingers
    rclavicle rhumerus
    rhumerus rradius
    rradius rwrist
    rwrist rhand rthumb
    rhand rfingers
  end

#!OML:ASF H:\ManfredObstacles\Project 1\Capture day 2\Session 1\male.ASF
:FULLY-SPECIFIED
:DEGREES
33
root -13.2191 15.4826 18.0999 -172.829 -7.98186 170.194
lowerback 1.96167 -2.70413 -8.97062
upperback 5.50025 -3.9353 -1.55558
thorax 5.13376 -2.50698 3.24465
lowerneck -42.2216 -2.63922 -0.665308
upperneck 43.1172 -1.94636 1.97082
head 30.2278 0.338498 1.23731
rclavicle 4.09993e-014 2.24627e-014
rhumerus -60.9516 -1.57184 -77.1691
rradius 48.7602
rwrist 13.7675
rhand -13.2549 -8.38848
rfingers 7.12502
rthumb 12.8475 -37.9731
lclavicle 4.09993e-014 2.24627e-014
lhumerus -28.9266 -23.4729 92.5848
lradius 93.7099
lwrist -19.3678
lhand -18.2263 7.86124
lfingers 7.12502
lthumb 8.05196 37.6878
rfemur -47.0531 -3.77861 17.094
rtibia 87.2149
rfoot -1.44117 -22.3598
rtoes -17.5692
lfemur -6.15754 -6.37126 -27.4073
ltibia 36.1231
lfoot 0.0954849 20.1151
ltoes -15.9769
34
root -13.1692 15.5771 17.7652 -172.47 -8.16386 170.074
lowerback 1.77028 -2.97933 -8.83313
upperback 5.50433 -4.28087 -1.5965
thorax 5.27626 -2.6747 3.09708
lowerneck -42.5906 -2.46437 -0.29825
upperneck 43.1178 -1.92731 1.8236
head 30.4037 0.38939 1.06937
rclavicle 2.36057e-014 3.20043e-014
rhumerus -62.0767 -2.14823 -76.9059
rradius 49.0079
rwrist 13.4151
rhand -13.0303 -8.37046
rfingers 7.12502
rthumb 13.064 -37.9413
lclavicle 2.36057e-014 3.20043e-014
lhumerus -28.0415 -24.2115 92.1615
lradius 94.4247
lwrist -19.182
lhand -17.9681 7.58276
lfingers 7.12502
lthumb 8.30109 37.3997
rfemur -48.3947 -3.37925 16.8124
rtibia 84.5061
rfoot -1.31523 -22.3798
rtoes -17.4468
lfemur -4.57245 -6.46429 -27.2129
ltibia 34.3449
lfoot 1.57784 18.2766
ltoes -16.2054
35
root -13.1159 15.6787 17.4254 -172.103 -8.28664 169.922
lowerback 1.54008 -3.24849 -8.73674
upperback 5.49893 -4.61425 -1.65371
thorax 5.42974 -2.83738 2.951
lowerneck -42.9382 -2.32313 0.00627326
upperneck 43.1177 -1.94175 1.72274
head 30.5773 0.424563 0.932656
rclavicle 4.00551e-014 4.07509e-015
rhumerus -63.131 -2.76334 -76.6254
rradius 49.2761
rwrist 13.0699
rhand -12.8061 -8.25478
rfingers 7.12502
rthumb 13.2801 -37.8117
lclavicle 4.00551e-014 4.07509e-015
lhumerus -27.3115 -24.9029 91.7009
lradius 95.1435
lwrist -19.0276
lhand -17.6521 7.26753
lfingers 7.12502
lthumb 8.60608 37.0721
rfemur -49.5008 -2.94024 16.4665
rtibia 81.4704
rfoot -0.930227 -22.3613
rtoes -17.6592
lfemur -2.99322 -6.43833 -27.0161
ltibia 32.4431
lfoot 3.19814 16.1567
ltoes -16.399
36
root -13.0604 15.785 17.0813 -171.741 -8.35561 169.751
lowerback 1.30113 -3.52699 -8.65967
upperback 5.47626 -4.95908 -1.70742
thorax 5.5718 -3.00483 2.81616
lowerneck -43.2573 -2.16648 0.286907
upperneck 43.1192 -1.90952 1.62406
head 30.7397 0.469046 0.819016
rclavicle -8.19987e-015 1.49089e-014
rhumerus -64.0959 -3.34349 -76.3035
rradius 49.5285
rwrist 12.7649
rhand -12.608 -8.01784
rfingers 7.12502
rthumb 13.471 -37.5622
lclavicle -8.19987e-015 1.49089e-014
lhumerus -26.7521 -25.4813 91.241
lradius 95.8583
lwrist -18.9215
lhand -17.38 6.96048
lfingers 7.12502
lthumb 8.86866 36.7541
rfemur -50.366 -2.47933 16.068
rtibia 78.1329
rfoot -0.362668 -22.3222
rtoes -18.0226
lfemur -1.41527 -6.31596 -26.8145
ltibia 30.4288
lfoot 5.00084 13.8091
ltoes -16.2942
37
root -13.0031 15.8943 16.7333 -171.394 -8.36335 169.573
lowerback 1.0359 -3.82174 -8.61647
upperback 5.45065 -5.32242 -1.71746
thorax 5.73467 -3.18345 2.73913
lowerneck -43.5714 -2.00272 0.469557
upperneck 43.115 -1.78506 1.5302
head 30.8941 0.518123 0.760927
rclavicle 6.55989e-015 -2.28602e-015
rhumerus -64.9217 -3.81766 -75.9051
rradius 49.7575
rwrist 12.4015
rhand -12.4374 -7.67803
rfingers 7.12502
rthumb 13.6354 -37.2114
lclavicle 6.55989e-015 -2.28602e-015
lhumerus -26.3152 -25.9016 90.8324
lradius 96.5389
lwrist -18.816
lhand -17.2589 6.69145
lfingers 7.12502
lthumb 8.98553 36.4801
rfemur -50.9923 -1.98011 15.628
rtibia 74.5251
rfoot 0.381892 -22.2716
rtoes -18.4064
lfemur 0.158811 -6.10394 -26.6071
ltibia 28.3083
lfoot 7.09123 11.2915
ltoes -16.0927
38
root -12.9451 16.0049 16.3815 -171.059 -8.31831 169.395
lowerback 0.740189 -4.12001 -8.58084
upperback 5.42873 -5.68718 -1.6929
thorax 5.92327 -3.36391 2.69571
lowerneck -43.8968 -1.82843 0.579368
upperneck 43.0816 -1.58868 1.42812
head 31.0056 0.56658 0.734262
rclavicle 8.08557e-014 2.04748e-014
rhumerus -65.6215 -4.23715 -75.4267
rradius 49.9912
rwrist 12.0071
rhand -12.2174 -7.34969
rfingers 7.12502
rthumb 13.8475 -36.8687
lclavicle 8.08557e-014 2.04748e-014
lhumerus -25.9676 -26.2179 90.4622
lradius 97.1493
lwrist -18.8492
lhand -17.2688 6.52321
lfingers 7.12502
lthumb 8.97597 36.3123
rfemur -51.3921 -1.45176 15.1604
rtibia 70.6876
rfoot 1.2737 -22.2116
rtoes -18.7279
lfemur 1.72395 -5.82731 -26.3917
ltibia 26.0955
lfoot 9.49604 8.6978
ltoes -15.8588
39
root -12.8869 16.1148 16.0263 -170.732 -8.23385 169.22
lowerback 0.408043 -4.41539 -8.53007
upperback 5.41965 -6.04511 -1.64569
thorax 6.14658 -3.54158 2.66008
lowerneck -44.266 -1.6499 0.645798
upperneck 43.0404 -1.34059 1.30429
head 31.1293 0.615529 0.719326
rclavicle 6.03311e-014 1.40143e-014
rhumerus -66.173 -4.65134 -74.8643
rradius 50.1536
rwrist 11.7911
rhand -12.0364 -6.94256
rfingers 7.12502
rthumb 14.0219 -36.4496
lclavicle 6.03311e-014 1.40143e-014
lhumerus -25.6747 -26.4775 90.1156
lradius 97.6876
lwrist -18.9113
lhand -17.4073 6.41976
lfingers 7.12502
lthumb 8.84229 36.2145
rfemur -51.5916 -0.900625 14.6716
rtibia 66.6709
rfoot 2.27687 -22.1474
rtoes -18.7925
lfemur 3.26965 -5.51492 -26.1742
ltibia 23.8121
lfoot 12.3431 6.11704
ltoes -15.3703
40
root -12.8295 16.222 15.6678 -170.416 -8.11457 169.04
lowerback 0.0336953 -4.67164 -8.43858
upperback 5.45178 -6.34959 -1.6239
thorax 6.42387 -3.69387 2.56936
lowerneck -44.6776 -1.46937 0.789477
upperneck 44.3243 -1.12858 1.11887
head 29.8741 0.666209 0.640867
rclavicle -4.6118e-014 -2.36554e-014
rhumerus -66.5922 -5.20302 -74.2638
rradius 50.2614
rwrist 11.7597
rhand -11.8758 -6.49582
rfingers 7.12502
rthumb 14.1767 -35.9921
lclavicle -4.6118e-014 -2.36554e-014
lhumerus -25.3537 -26.8137 89.7067
lradius 98.1266
lwrist -19.0351
lhand -17.615 6.39069
lfingers 7.12502
lthumb 8.64184 36.1938
rfemur -51.6049 -0.346627 14.1653
rtibia 62.5288
rfoot 3.42157 -22.0359
rtoes -18.8149
lfemur 4.79156 -5.18388 -25.973
ltibia 21.4938
lfoot 15.6509 3.66478
ltoes -14.5374
41
root -12.7732 16.3254 15.3063 -170.099 -7.98262 168.851
lowerback -0.375748 -4.92902 -8.30357
upperback 5.46546 -6.65269 -1.60475
thorax 6.69507 -3.84043 2.44674
lowerneck -45.2046 -1.29569 0.875284
upperneck 44.3003 -0.8853 0.918958
head 30.0166 0.703081 0.564564
rclavicle 3.23025e-015 -1.59028e-014
rhumerus -66.9652 -5.7285 -73.6246
rradius 50.3492
rwrist 11.8908
rhand -11.7096 -6.06596
rfingers 7.12502
rthumb 14.3368 -35.5509
lclavicle 3.23025e-015 -1.59028e-014
lhumerus -25.1482 -27.1063 89.3359
lradius 98.4833
lwrist -19.2175
lhand -17.764 6.34153
lfingers 7.12502
lthumb 8.49812 36.1505
rfemur -51.4603 0.172315 13.6551
rtibia 58.3194
rfoot 4.66953 -21.8524
rtoes -18.8045
lfemur 6.27147 -4.84981 -25.7904
ltibia 19.1882
lfoot 19.3663 1.46542
ltoes -13.1346
42
root -12.7187 16.4235 14.9424 -169.778 -7.82833 168.66
lowerback -0.831681 -5.15794 -8.12041
upperback 5.48776 -6.91564 -1.60586
thorax 6.98779 -3.96389 2.27187
lowerneck -45.7272 -1.13485 0.981771
upperneck 44.2804 -0.666533 0.698579
head 30.1644 0.735765 0.462417
rclavicle 1.5704e-014 1.66979e-014
rhumerus -67.2674 -6.29843 -72.9941
rradius 50.4429
rwrist 12.0525
rhand -11.5217 -5.74175
rfingers 7.12502
rthumb 14.5179 -35.2138
lclavicle 1.5704e-014 1.66979e-014
lhumerus -24.9818 -27.4294 88.9552
lradius 98.7564
lwrist -19.4061
lhand -17.8453 6.25334
lfingers 7.12502
lthumb 8.41965 36.0655
rfemur -51.1813 0.642735 13.1683
rtibia 54.105
rfoot 5.92468 -21.6263
rtoes -18.7851
lfemur 7.68422 -4.49777 -25.6222
ltibia 16.9612
lfoot 23.353 -0.405518
ltoes -11.2006
